<?xml version="1.0" standalone="no"?>
<!DOCTYPE svg PUBLIC "-//W3C//DTD SVG 20010904//EN"
 "http://www.w3.org/TR/2001/REC-SVG-20010904/DTD/svg10.dtd">
<svg version="1.0" xmlns="http://www.w3.org/2000/svg"
 width="518.000000pt" height="524.000000pt" viewBox="0 0 518.000000 524.000000"
 preserveAspectRatio="xMidYMid meet">

<g transform="translate(0.000000,524.000000) scale(0.100000,-0.100000)"
fill="#DC143C" stroke="none">
<path d="M3070 5205 c-19 -7 -59 -14 -88 -14 -29 -1 -108 -15 -175 -32 -244
-61 -1060 -300 -1105 -323 -88 -45 -122 -96 -282 -416 l-92 -184 -136 -71
c-335 -174 -559 -318 -897 -579 -246 -189 -268 -222 -269 -396 -1 -88 1 -100
32 -162 38 -77 92 -130 171 -167 47 -22 70 -26 148 -26 l91 0 7 -60 c4 -33 14
-80 23 -104 l17 -44 -51 -101 c-110 -215 -203 -487 -275 -801 -27 -118 -32
-160 -32 -265 0 -107 3 -134 23 -184 44 -114 137 -184 278 -208 60 -10 78 -9
136 6 108 29 203 111 260 224 22 43 39 40 62 -9 10 -23 38 -61 61 -85 l44 -43
-13 -85 c-18 -128 5 -257 64 -356 40 -66 98 -112 178 -141 33 -12 60 -28 60
-35 0 -8 9 -42 21 -76 48 -147 153 -226 328 -247 79 -10 210 2 277 25 27 9
272 112 544 229 825 354 1205 498 1772 671 168 50 214 73 271 131 65 64 82
106 82 203 0 77 -3 92 -33 153 -40 81 -96 127 -187 153 -66 18 -136 16 -383
-12 -73 -8 -138 -14 -144 -12 -6 2 70 34 168 72 254 96 314 127 366 184 58 66
93 162 85 238 -3 31 -10 61 -15 67 -5 7 -12 24 -16 39 -7 33 -79 107 -126 131
l-35 18 40 -8 c112 -21 252 5 380 69 147 75 203 159 203 311 0 95 -26 163 -84
220 l-45 44 -2 94 c-2 80 -7 102 -30 146 -39 76 -82 120 -148 154 l-59 29 43
39 c23 21 65 50 92 64 141 71 205 228 160 393 -28 104 -77 151 -249 234 -233
113 -609 254 -905 339 l-95 28 -57 154 c-90 247 -161 347 -267 383 -55 19
-144 19 -192 1z m-716 -1571 c8 -3 12 -12 9 -21 -5 -12 -3 -14 6 -8 10 6 11 3
2 -14 -7 -11 -17 -20 -24 -18 -7 1 -11 -6 -9 -15 2 -10 -1 -18 -7 -18 -5 0
-12 -13 -16 -30 -4 -16 -11 -30 -16 -30 -5 0 -9 -6 -9 -14 0 -8 -4 -18 -10
-21 -6 -3 -7 1 -4 12 3 10 -3 5 -12 -12 -10 -16 -19 -37 -20 -45 -2 -8 -12
-22 -23 -32 -12 -9 -21 -20 -21 -25 0 -4 -9 -19 -19 -33 -17 -22 -21 -23 -38
-10 -17 14 -17 14 -4 -3 12 -15 12 -20 1 -30 -10 -10 -11 -9 -5 3 8 13 6 13
-8 1 -9 -7 -14 -18 -10 -25 3 -6 3 -8 -2 -4 -4 4 -13 1 -20 -6 -26 -26 -90 -6
-101 32 -12 42 -12 62 0 62 6 0 4 5 -4 10 -8 5 -10 10 -5 10 6 0 17 16 24 35
7 19 17 33 22 30 5 -3 6 1 3 10 -4 11 5 29 27 51 26 27 39 34 61 30 33 -5 34
-3 11 15 -14 12 -16 12 -8 0 6 -10 4 -12 -5 -6 -17 10 13 34 53 42 15 3 30 10
34 16 4 6 1 7 -7 2 -9 -5 -11 -4 -6 3 4 7 16 12 27 12 13 0 18 -4 13 -12 -4
-7 -3 -8 5 -4 6 4 8 12 5 18 -5 7 0 9 14 6 15 -4 19 -2 15 8 -3 10 3 14 20 14
14 0 29 5 32 10 7 12 8 12 29 4z m2222 -330 c16 -23 16 -29 -1 -87 -50 -176
-54 -197 -43 -222 12 -27 42 -41 112 -50 67 -9 76 -14 76 -40 0 -32 -37 -58
-120 -85 -100 -32 -175 -23 -250 31 -12 9 -34 -2 -104 -50 -50 -34 -94 -61
-98 -61 -5 0 -28 -10 -51 -21 -31 -16 -67 -23 -134 -27 l-93 -4 -39 39 c-105
105 -40 283 158 431 149 110 261 153 409 157 57 2 106 6 109 9 15 15 54 4 69
-20z m-929 1 c58 -24 71 -40 66 -81 -7 -63 -31 -94 -216 -281 -115 -116 -175
-184 -166 -187 8 -2 79 -12 159 -21 115 -13 158 -15 205 -6 49 9 62 9 74 -4
22 -22 0 -60 -56 -95 -91 -58 -124 -63 -403 -67 -140 -1 -281 -7 -313 -13 -44
-9 -62 -8 -73 1 -32 26 -7 120 49 186 12 14 121 107 242 206 216 177 219 180
175 173 -25 -3 -110 -9 -190 -12 -131 -5 -147 -3 -166 13 -51 45 -59 110 -18
142 21 17 36 20 83 15 33 -2 122 5 221 20 199 29 278 31 327 11z m-735 -202
c69 -60 -14 -190 -296 -466 -128 -126 -155 -157 -131 -150 61 15 306 6 435
-16 69 -12 179 -25 245 -28 103 -5 132 -3 208 16 91 23 117 20 117 -15 0 -20
-73 -70 -137 -94 -109 -41 -138 -43 -548 -45 -415 -2 -476 -7 -587 -47 -99
-36 -158 -8 -158 76 0 80 41 131 285 354 44 41 135 119 202 175 67 56 121 102
120 103 -1 1 -40 -5 -87 -12 -138 -21 -238 -18 -290 9 -25 12 -52 34 -60 49
-13 25 -13 29 6 55 21 28 23 28 160 36 470 25 487 25 516 0z m-822 -23 c11 -6
24 -27 30 -48 28 -104 -2 -221 -121 -459 -57 -116 -93 -201 -98 -234 -9 -55
-21 -69 -62 -69 -55 0 -99 62 -114 160 -15 104 61 287 196 470 38 52 77 108
87 124 18 32 49 66 58 66 3 0 14 -5 24 -10z m-808 -34 c102 -22 175 -61 244
-132 156 -157 146 -386 -23 -573 -124 -138 -349 -241 -524 -241 -80 0 -99 6
-99 31 0 22 35 41 104 58 65 16 168 69 244 126 256 193 187 456 -128 482 l-65
5 -1 -59 c-2 -70 -16 -123 -94 -343 -120 -340 -380 -989 -418 -1039 -23 -32
-77 -61 -100 -54 -52 13 -66 136 -33 294 89 419 240 798 441 1101 l57 86 -40
-14 c-59 -21 -124 -18 -137 5 -14 28 -12 77 4 110 60 116 364 200 568 157z
m2530 -653 c29 -26 23 -84 -17 -163 -19 -39 -32 -70 -28 -70 5 0 105 18 223
40 220 41 265 46 274 32 13 -22 -20 -41 -179 -102 -60 -24 -114 -46 -120 -50
-5 -4 -71 -29 -145 -56 -74 -26 -136 -49 -138 -50 -14 -8 -228 -622 -220 -630
3 -2 69 11 149 30 79 18 189 41 244 50 55 9 127 21 160 26 33 6 130 17 215 25
138 14 156 14 169 0 28 -28 -1 -46 -149 -91 -235 -73 -442 -141 -655 -216
-303 -106 -858 -324 -890 -348 -8 -6 -439 -195 -775 -340 -89 -39 -135 -50
-202 -50 -80 0 -132 23 -153 67 -31 64 3 132 80 161 83 31 381 155 390 163 6
4 200 83 430 175 360 143 816 304 861 304 11 0 14 27 14 135 0 154 13 233 65
387 19 57 35 106 35 111 0 4 -17 7 -38 7 -21 0 -62 7 -90 15 -73 22 -92 65
-51 115 19 22 28 25 78 23 31 -1 86 2 122 8 l66 10 73 116 c40 63 86 130 102
149 34 38 70 44 100 17z m-1461 -209 c11 -13 7 -48 -20 -212 -18 -108 -35
-207 -38 -220 l-5 -23 57 22 c38 14 60 18 67 11 20 -20 -4 -50 -75 -95 l-72
-46 -34 -138 c-44 -180 -78 -290 -103 -332 -41 -65 -127 -92 -167 -52 -45 45
-47 138 -7 309 8 34 13 62 11 62 -2 0 -25 -11 -52 -24 -26 -13 -105 -43 -174
-67 l-125 -43 -28 -111 c-43 -167 -87 -317 -101 -345 -23 -44 -76 -89 -111
-96 -58 -11 -83 2 -106 53 -28 64 -21 178 22 341 17 68 30 125 27 128 -2 2
-31 9 -64 15 -82 14 -120 39 -128 82 -13 70 13 87 175 112 57 9 105 17 106 18
0 1 47 94 103 207 112 227 219 395 267 423 30 17 33 17 49 0 14 -14 16 -28 12
-77 -8 -82 -48 -231 -101 -376 -23 -66 -42 -120 -40 -120 7 0 338 71 339 73 0
1 20 61 44 132 49 149 116 293 167 359 27 36 41 46 63 46 16 0 34 -7 42 -16z
m843 -207 c7 -19 4 -66 -9 -160 -12 -81 -19 -197 -20 -301 -1 -123 -5 -171
-14 -174 -63 -21 -184 113 -200 221 l-6 38 -37 -48 c-121 -159 -238 -238 -354
-238 -150 0 -182 112 -99 354 19 58 35 111 35 120 0 8 -19 31 -41 52 -61 57
-36 89 70 89 59 0 106 -29 138 -85 27 -48 30 -137 9 -230 -8 -33 -13 -61 -12
-62 4 -4 135 87 204 141 97 76 128 110 167 185 53 100 85 133 127 129 25 -2
35 -9 42 -31z"/>
<path d="M2331 3621 c-8 -5 -9 -11 -3 -15 5 -3 12 1 16 9 6 17 6 18 -13 6z"/>
<path d="M2290 3606 c0 -2 7 -7 16 -10 8 -3 12 -2 9 4 -6 10 -25 14 -25 6z"/>
<path d="M2265 3560 c-3 -6 1 -7 9 -4 18 7 21 14 7 14 -6 0 -13 -4 -16 -10z"/>
<path d="M2285 3500 c-3 -5 -1 -10 4 -10 6 0 11 5 11 10 0 6 -2 10 -4 10 -3 0
-8 -4 -11 -10z"/>
<path d="M2056 3461 c-20 -22 -3 -42 17 -22 9 9 7 10 -8 5 -20 -7 -20 -7 -1
14 11 12 17 22 14 22 -3 0 -13 -9 -22 -19z"/>
<path d="M4289 3145 c-110 -40 -195 -108 -236 -189 l-25 -49 52 7 c53 7 202
75 217 98 7 12 34 84 50 131 6 20 -7 21 -58 2z"/>
</g>
</svg>
