<?xml version="1.0" standalone="no"?>
<!DOCTYPE svg PUBLIC "-//W3C//DTD SVG 20010904//EN"
 "http://www.w3.org/TR/2001/REC-SVG-20010904/DTD/svg10.dtd">
<svg version="1.0" xmlns="http://www.w3.org/2000/svg"
 width="225.000000pt" height="225.000000pt" viewBox="0 0 225.000000 225.000000"
 preserveAspectRatio="xMidYMid meet">

<g transform="translate(0.000000,225.000000) scale(0.100000,-0.100000)"
fill="#DC143C" stroke="none">
<path d="M1095 1930 c-152 -21 -342 -87 -459 -157 -116 -71 -248 -216 -295
-326 -62 -143 -68 -392 -11 -392 12 0 17 20 22 85 17 207 80 343 216 472 73
68 226 154 295 165 64 10 41 -11 -64 -56 -165 -71 -264 -162 -338 -308 -47
-94 -61 -168 -61 -329 0 -169 10 -226 54 -319 73 -154 272 -303 446 -336 75
-14 94 -25 57 -34 -35 -9 -169 26 -262 69 -83 38 -173 117 -252 219 -74 95
-100 63 -42 -52 67 -133 226 -249 395 -286 104 -24 317 -16 424 14 161 47 325
149 419 263 59 71 142 235 163 318 17 74 14 293 -6 395 -24 124 -72 210 -162
294 -91 85 -222 155 -326 174 -79 14 -92 31 -27 35 101 7 302 -93 415 -205 46
-45 73 -83 102 -145 59 -123 77 -209 77 -363 0 -162 -20 -256 -82 -384 -38
-79 -59 -108 -131 -181 -48 -48 -117 -106 -154 -130 -103 -65 -83 -92 27 -37
100 50 284 221 343 320 76 126 106 272 100 481 -4 124 -8 152 -36 236 -84 254
-244 413 -484 480 -83 24 -268 34 -363 20z m213 -323 c6 -7 16 -33 22 -58 11
-44 13 -46 68 -63 94 -30 199 -76 217 -96 37 -41 11 -47 -218 -53 -203 -5
-365 -20 -582 -53 -177 -27 -215 -29 -215 -11 0 19 87 73 212 132 86 40 95 47
125 98 l32 54 148 31 c175 35 178 36 191 19z m-270 -350 c-24 -46 -52 -77 -70
-77 -28 0 -22 42 10 72 45 42 82 45 60 5z m494 -74 c-2 -34 1 -43 18 -48 12
-4 19 -12 17 -18 -5 -15 -48 -25 -72 -17 -12 4 -31 0 -50 -12 -16 -10 -40 -18
-53 -18 -12 0 -33 -6 -45 -14 -12 -7 -59 -16 -104 -20 -76 -5 -83 -4 -83 13 0
11 25 42 56 70 l56 52 -39 -7 c-29 -4 -42 -2 -53 10 -21 26 -2 35 83 42 67 6
77 5 83 -10 5 -13 -7 -31 -40 -65 -25 -26 -46 -50 -46 -54 0 -4 20 -7 45 -7
42 0 45 2 45 26 0 14 4 34 10 44 19 36 116 82 160 76 11 -1 14 -13 12 -43z
m-673 11 c23 -19 31 -34 31 -59 0 -60 -77 -125 -148 -125 -28 0 -32 -4 -51
-63 -12 -35 -28 -73 -37 -85 -22 -32 -44 -28 -44 7 0 41 44 176 75 230 24 41
24 44 8 56 -15 11 -15 15 -3 30 36 43 123 48 169 9z m311 -40 c0 -8 -22 -39
-50 -68 -27 -29 -50 -55 -50 -57 0 -3 52 -4 115 -4 63 0 115 -3 115 -7 0 -19
-54 -33 -150 -39 -58 -4 -124 -11 -147 -14 -38 -7 -43 -5 -43 11 0 11 27 46
60 79 l61 60 -38 5 c-25 3 -39 11 -41 22 -4 19 17 25 106 27 50 1 62 -2 62
-15z m-192 -21 c2 -12 -12 -55 -30 -97 -37 -87 -61 -98 -66 -31 -2 32 5 52 34
98 36 58 56 68 62 30z m445 -129 c3 -3 1 -17 -4 -31 -8 -22 -7 -24 8 -19 9 4
38 10 63 13 60 8 44 -9 -40 -40 l-64 -25 -29 -86 c-19 -58 -34 -86 -44 -86
-13 0 -14 9 -10 53 3 28 9 64 12 79 6 21 3 27 -15 33 -32 10 -21 39 17 43 24
2 37 12 53 38 20 32 39 42 53 28z m-473 -66 c0 -7 -7 -38 -15 -68 -8 -30 -13
-55 -11 -57 1 -2 16 -1 32 3 23 4 35 17 59 67 40 81 60 89 51 18 -6 -44 -4
-51 11 -51 14 0 12 -5 -9 -27 -15 -17 -28 -46 -32 -73 -8 -51 -21 -70 -47 -70
-16 0 -19 8 -19 44 l0 45 -36 -12 c-32 -12 -38 -20 -57 -77 -18 -52 -27 -66
-45 -68 -29 -4 -36 16 -24 72 8 39 7 45 -9 49 -45 12 -31 57 18 57 17 0 29 14
53 63 32 64 57 97 72 97 4 0 8 -6 8 -12z m318 -98 c-3 -84 -14 -99 -42 -59
l-15 22 -32 -27 c-21 -18 -41 -26 -58 -24 -25 3 -26 5 -25 68 1 55 4 66 19 69
25 4 46 -26 38 -57 -5 -22 -4 -23 14 -14 11 6 33 28 48 49 26 34 44 52 53 53
2 0 2 -36 0 -80z"/>
<path d="M1439 1161 c-27 -22 -21 -38 9 -22 21 11 37 41 23 41 -5 0 -19 -9
-32 -19z"/>
<path d="M746 1100 c-10 -34 -16 -63 -13 -66 7 -7 46 13 75 39 27 25 28 48 4
70 -32 29 -46 20 -66 -43z"/>
<path d="M282 968 c-29 -29 -5 -147 33 -162 39 -14 45 -8 45 49 0 96 -39 152
-78 113z"/>
<path d="M1790 491 c0 -7 -4 -9 -10 -6 -5 3 -10 2 -10 -4 0 -5 5 -13 10 -16
11 -7 26 22 16 32 -3 4 -6 1 -6 -6z"/>
</g>
</svg>
